<svg xmlns="http://www.w3.org/2000/svg" width="16" height="16">
<rect ry="2" y="0" x="0" height="16" width="16" fill="#fefefe" />
<path d="M 15 1.8789062 L 8.5 8.3789062 L 6.0605469 5.9394531 L 3.9394531 8.0605469 L 8.5 12.621094 L 15 6.1210938 L 15 1.8789062 z " fill="#2e3436" />
<path d="M 2 0 C 0.892 0 0 0.892 0 2 L 0 14 C 0 15.108 0.892 16 2 16 L 14 16 C 15.108 16 16 15.108 16 14 L 16 2 C 16 0.892 15.108 0 14 0 L 2 0 z M 2 1 L 14 1 C 14.554 1 15 1.446 15 2 L 15 14 C 15 14.554 14.554 15 14 15 L 2 15 C 1.446 15 1 14.554 1 14 L 1 2 C 1 1.446 1.446 1 2 1 z " fill="#bfb8b1" />
</svg>
